<svg width="130" height="16" viewBox="0 0 130 16" fill="none" xmlns="http://www.w3.org/2000/svg">
<path d="M0.12 12V0.48H4.648C5.37867 0.48 5.992 0.629333 6.488 0.927999C6.984 1.22667 7.35733 1.61333 7.608 2.088C7.85867 2.55733 7.984 3.05333 7.984 3.576C7.984 4.21067 7.82667 4.75467 7.512 5.208C7.20267 5.66133 6.784 5.97067 6.256 6.136L6.24 5.744C6.976 5.92533 7.54133 6.28 7.936 6.808C8.33067 7.33067 8.528 7.94133 8.528 8.64C8.528 9.31733 8.392 9.90667 8.12 10.408C7.85333 10.9093 7.46133 11.3013 6.944 11.584C6.432 11.8613 5.81067 12 5.08 12H0.12ZM1.816 10.408H4.824C5.20267 10.408 5.54133 10.336 5.84 10.192C6.144 10.048 6.38133 9.84267 6.552 9.576C6.728 9.304 6.816 8.98133 6.816 8.608C6.816 8.26133 6.73867 7.94933 6.584 7.672C6.43467 7.38933 6.216 7.168 5.928 7.008C5.64533 6.84267 5.312 6.76 4.928 6.76H1.816V10.408ZM1.816 5.184H4.624C4.93333 5.184 5.21067 5.12267 5.456 5C5.70667 4.872 5.904 4.69067 6.048 4.456C6.19733 4.216 6.272 3.928 6.272 3.592C6.272 3.144 6.12267 2.776 5.824 2.488C5.52533 2.2 5.12533 2.056 4.624 2.056H1.816V5.184ZM13.952 12.24C13.0933 12.24 12.3387 12.0533 11.688 11.68C11.0427 11.3013 10.5387 10.776 10.176 10.104C9.81867 9.42667 9.64 8.64267 9.64 7.752C9.64 6.808 9.816 5.98933 10.168 5.296C10.5253 4.60267 11.0213 4.06667 11.656 3.688C12.2907 3.30933 13.0293 3.12 13.872 3.12C14.752 3.12 15.5013 3.32533 16.12 3.736C16.7387 4.14133 17.2 4.72 17.504 5.472C17.8133 6.224 17.936 7.11733 17.872 8.152H16.2V7.544C16.1893 6.54133 15.9973 5.8 15.624 5.32C15.256 4.84 14.6933 4.6 13.936 4.6C13.0987 4.6 12.4693 4.864 12.048 5.392C11.6267 5.92 11.416 6.68267 11.416 7.68C11.416 8.62933 11.6267 9.36533 12.048 9.888C12.4693 10.4053 13.0773 10.664 13.872 10.664C14.3947 10.664 14.8453 10.5467 15.224 10.312C15.608 10.072 15.9067 9.73067 16.12 9.288L17.76 9.808C17.424 10.5813 16.9147 11.1813 16.232 11.608C15.5493 12.0293 14.7893 12.24 13.952 12.24ZM10.872 8.152V6.848H17.04V8.152H10.872ZM25.4965 12V7.752C25.4965 7.416 25.4672 7.072 25.4085 6.72C25.3552 6.36267 25.2485 6.032 25.0885 5.728C24.9338 5.424 24.7125 5.17867 24.4245 4.992C24.1418 4.80533 23.7712 4.712 23.3125 4.712C23.0138 4.712 22.7312 4.76267 22.4645 4.864C22.1978 4.96 21.9632 5.11733 21.7605 5.336C21.5632 5.55467 21.4058 5.84267 21.2885 6.2C21.1765 6.55733 21.1205 6.992 21.1205 7.504L20.0805 7.112C20.0805 6.328 20.2272 5.63733 20.5205 5.04C20.8138 4.43733 21.2352 3.968 21.7845 3.632C22.3338 3.296 22.9978 3.128 23.7765 3.128C24.3738 3.128 24.8752 3.224 25.2805 3.416C25.6858 3.608 26.0138 3.86133 26.2645 4.176C26.5205 4.48533 26.7152 4.824 26.8485 5.192C26.9818 5.56 27.0725 5.92 27.1205 6.272C27.1685 6.624 27.1925 6.93333 27.1925 7.2V12H25.4965ZM19.4245 12V3.36H20.9205V5.856H21.1205V12H19.4245ZM32.9989 12.24C32.1402 12.24 31.3855 12.0533 30.7349 11.68C30.0895 11.3013 29.5855 10.776 29.2229 10.104C28.8655 9.42667 28.6869 8.64267 28.6869 7.752C28.6869 6.808 28.8629 5.98933 29.2149 5.296C29.5722 4.60267 30.0682 4.06667 30.7029 3.688C31.3375 3.30933 32.0762 3.12 32.9189 3.12C33.7989 3.12 34.5482 3.32533 35.1669 3.736C35.7855 4.14133 36.2469 4.72 36.5509 5.472C36.8602 6.224 36.9829 7.11733 36.9189 8.152H35.2469V7.544C35.2362 6.54133 35.0442 5.8 34.6709 5.32C34.3029 4.84 33.7402 4.6 32.9829 4.6C32.1455 4.6 31.5162 4.864 31.0949 5.392C30.6735 5.92 30.4629 6.68267 30.4629 7.68C30.4629 8.62933 30.6735 9.36533 31.0949 9.888C31.5162 10.4053 32.1242 10.664 32.9189 10.664C33.4415 10.664 33.8922 10.5467 34.2709 10.312C34.6549 10.072 34.9535 9.73067 35.1669 9.288L36.8069 9.808C36.4709 10.5813 35.9615 11.1813 35.2789 11.608C34.5962 12.0293 33.8362 12.24 32.9989 12.24ZM29.9189 8.152V6.848H36.0869V8.152H29.9189ZM39.5058 12V3.056C39.5058 2.83733 39.5138 2.60533 39.5298 2.36C39.5458 2.10933 39.5911 1.864 39.6658 1.624C39.7458 1.37867 39.8764 1.15467 40.0578 0.952C40.2764 0.711999 40.5164 0.541333 40.7778 0.44C41.0391 0.338666 41.2978 0.279999 41.5538 0.263999C41.8151 0.248 42.0551 0.24 42.2738 0.24H43.3618V1.616H42.3538C41.9591 1.616 41.6631 1.71467 41.4658 1.912C41.2738 2.104 41.1778 2.37867 41.1778 2.736V12H39.5058ZM38.0738 4.704V3.36H43.3618V4.704H38.0738ZM45.0418 1.944V0.32H46.7138V1.944H45.0418ZM45.0418 12V3.36H46.7138V12H45.0418ZM52.816 12.24C51.9307 12.24 51.1787 12.0427 50.56 11.648C49.9413 11.2533 49.4667 10.712 49.136 10.024C48.8107 9.336 48.6453 8.55467 48.64 7.68C48.6453 6.78933 48.816 6.00267 49.152 5.32C49.488 4.632 49.968 4.09333 50.592 3.704C51.216 3.31467 51.9653 3.12 52.84 3.12C53.784 3.12 54.5893 3.35467 55.256 3.824C55.928 4.29333 56.3707 4.936 56.584 5.752L54.92 6.232C54.7547 5.74667 54.4827 5.37067 54.104 5.104C53.7307 4.832 53.3013 4.696 52.816 4.696C52.2667 4.696 51.816 4.82667 51.464 5.088C51.112 5.344 50.8507 5.696 50.68 6.144C50.5093 6.592 50.4213 7.104 50.416 7.68C50.4213 8.57067 50.624 9.29067 51.024 9.84C51.4293 10.3893 52.0267 10.664 52.816 10.664C53.3547 10.664 53.7893 10.5413 54.12 10.296C54.456 10.0453 54.712 9.688 54.888 9.224L56.584 9.624C56.3013 10.4667 55.8347 11.1147 55.184 11.568C54.5333 12.016 53.744 12.24 52.816 12.24ZM58.1394 1.944V0.32H59.8114V1.944H58.1394ZM58.1394 12V3.36H59.8114V12H58.1394ZM65.9658 12.24C65.1018 12.24 64.3524 12.0453 63.7178 11.656C63.0831 11.2667 62.5924 10.7307 62.2458 10.048C61.9044 9.36 61.7338 8.568 61.7338 7.672C61.7338 6.77067 61.9098 5.97867 62.2618 5.296C62.6138 4.608 63.1071 4.07467 63.7418 3.696C64.3764 3.312 65.1178 3.12 65.9658 3.12C66.8298 3.12 67.5791 3.31467 68.2138 3.704C68.8484 4.09333 69.3391 4.62933 69.6858 5.312C70.0324 5.99467 70.2058 6.78133 70.2058 7.672C70.2058 8.57333 70.0298 9.368 69.6778 10.056C69.3311 10.7387 68.8404 11.2747 68.2058 11.664C67.5711 12.048 66.8244 12.24 65.9658 12.24ZM65.9658 10.664C66.7924 10.664 67.4084 10.3867 67.8138 9.832C68.2244 9.272 68.4298 8.552 68.4298 7.672C68.4298 6.77067 68.2218 6.05067 67.8058 5.512C67.3951 4.968 66.7818 4.696 65.9658 4.696C65.4058 4.696 64.9444 4.824 64.5818 5.08C64.2191 5.33067 63.9498 5.68 63.7738 6.128C63.5978 6.57067 63.5098 7.08533 63.5098 7.672C63.5098 8.57867 63.7178 9.304 64.1338 9.848C64.5498 10.392 65.1604 10.664 65.9658 10.664ZM75.1115 12.232C74.0608 12.232 73.2048 12 72.5435 11.536C71.8822 11.072 71.4768 10.4187 71.3275 9.576L73.0395 9.312C73.1462 9.76 73.3915 10.1147 73.7755 10.376C74.1648 10.632 74.6475 10.76 75.2235 10.76C75.7462 10.76 76.1542 10.6533 76.4475 10.44C76.7462 10.2267 76.8955 9.93333 76.8955 9.56C76.8955 9.34133 76.8422 9.16533 76.7355 9.032C76.6342 8.89333 76.4182 8.76267 76.0875 8.64C75.7568 8.51733 75.2528 8.36533 74.5755 8.184C73.8342 7.992 73.2448 7.78667 72.8075 7.568C72.3755 7.344 72.0662 7.08533 71.8795 6.792C71.6982 6.49333 71.6075 6.13333 71.6075 5.712C71.6075 5.18933 71.7462 4.73333 72.0235 4.344C72.3008 3.95467 72.6902 3.65333 73.1915 3.44C73.6982 3.22667 74.2902 3.12 74.9675 3.12C75.6288 3.12 76.2182 3.224 76.7355 3.432C77.2528 3.64 77.6715 3.936 77.9915 4.32C78.3115 4.69867 78.5035 5.144 78.5675 5.656L76.8555 5.968C76.7968 5.552 76.6022 5.224 76.2715 4.984C75.9408 4.744 75.5115 4.61333 74.9835 4.592C74.4768 4.57067 74.0662 4.656 73.7515 4.848C73.4368 5.03467 73.2795 5.29333 73.2795 5.624C73.2795 5.816 73.3382 5.97867 73.4555 6.112C73.5782 6.24533 73.8128 6.37333 74.1595 6.496C74.5062 6.61867 75.0182 6.76533 75.6955 6.936C76.4208 7.12267 76.9968 7.33067 77.4235 7.56C77.8502 7.784 78.1542 8.05333 78.3355 8.368C78.5222 8.67733 78.6155 9.05333 78.6155 9.496C78.6155 10.3493 78.3035 11.0187 77.6795 11.504C77.0608 11.9893 76.2048 12.232 75.1115 12.232ZM87.6448 12.24C86.8181 12.24 86.1248 12.04 85.5648 11.64C85.0048 11.2347 84.5808 10.688 84.2928 10C84.0048 9.312 83.8608 8.536 83.8608 7.672C83.8608 6.808 84.0021 6.032 84.2848 5.344C84.5728 4.656 84.9941 4.11467 85.5488 3.72C86.1088 3.32 86.7968 3.12 87.6128 3.12C88.4234 3.12 89.1221 3.32 89.7088 3.72C90.3008 4.11467 90.7568 4.656 91.0768 5.344C91.3968 6.02667 91.5568 6.80267 91.5568 7.672C91.5568 8.536 91.3968 9.31467 91.0768 10.008C90.7621 10.696 90.3114 11.24 89.7248 11.64C89.1434 12.04 88.4501 12.24 87.6448 12.24ZM83.5808 15.84V3.36H85.0688V9.576H85.2608V15.84H83.5808ZM87.4128 10.728C87.9461 10.728 88.3861 10.592 88.7328 10.32C89.0848 10.048 89.3461 9.68267 89.5168 9.224C89.6928 8.76 89.7808 8.24267 89.7808 7.672C89.7808 7.10667 89.6928 6.59467 89.5168 6.136C89.3461 5.67733 89.0821 5.312 88.7248 5.04C88.3674 4.768 87.9114 4.632 87.3568 4.632C86.8341 4.632 86.4021 4.76 86.0608 5.016C85.7248 5.272 85.4741 5.62933 85.3088 6.088C85.1488 6.54667 85.0688 7.07467 85.0688 7.672C85.0688 8.26933 85.1488 8.79733 85.3088 9.256C85.4688 9.71467 85.7221 10.0747 86.0688 10.336C86.4154 10.5973 86.8634 10.728 87.4128 10.728ZM95.7631 12.24C95.1231 12.24 94.5871 12.1227 94.1551 11.888C93.7231 11.648 93.3951 11.3333 93.1711 10.944C92.9525 10.5493 92.8431 10.1173 92.8431 9.648C92.8431 9.21067 92.9205 8.82667 93.0751 8.496C93.2298 8.16533 93.4591 7.88533 93.7631 7.656C94.0671 7.42133 94.4405 7.232 94.8831 7.088C95.2671 6.976 95.7018 6.87733 96.1871 6.792C96.6725 6.70667 97.1818 6.62667 97.7151 6.552C98.2538 6.47733 98.7871 6.40267 99.3151 6.328L98.7071 6.664C98.7178 5.98667 98.5738 5.48533 98.2751 5.16C97.9818 4.82933 97.4751 4.664 96.7551 4.664C96.3018 4.664 95.8858 4.77067 95.5071 4.984C95.1285 5.192 94.8645 5.53867 94.7151 6.024L93.1551 5.544C93.3685 4.80267 93.7738 4.21333 94.3711 3.776C94.9738 3.33867 95.7738 3.12 96.7711 3.12C97.5445 3.12 98.2165 3.25333 98.7871 3.52C99.3631 3.78133 99.7845 4.19733 100.051 4.768C100.19 5.05067 100.275 5.34933 100.307 5.664C100.339 5.97867 100.355 6.31733 100.355 6.68V12H98.8751V10.024L99.1631 10.28C98.8058 10.9413 98.3498 11.4347 97.7951 11.76C97.2458 12.08 96.5685 12.24 95.7631 12.24ZM96.0591 10.872C96.5338 10.872 96.9418 10.7893 97.2831 10.624C97.6245 10.4533 97.8991 10.2373 98.1071 9.976C98.3151 9.71467 98.4511 9.44267 98.5151 9.16C98.6058 8.904 98.6565 8.616 98.6671 8.296C98.6831 7.976 98.6911 7.72 98.6911 7.528L99.2351 7.728C98.7071 7.808 98.2271 7.88 97.7951 7.944C97.3631 8.008 96.9711 8.072 96.6191 8.136C96.2725 8.19467 95.9631 8.26667 95.6911 8.352C95.4618 8.432 95.2565 8.528 95.0751 8.64C94.8991 8.752 94.7578 8.888 94.6511 9.048C94.5498 9.208 94.4991 9.40267 94.4991 9.632C94.4991 9.856 94.5551 10.064 94.6671 10.256C94.7791 10.4427 94.9498 10.592 95.1791 10.704C95.4085 10.816 95.7018 10.872 96.0591 10.872ZM102.433 12V3.36H103.921V5.456L103.713 5.184C103.819 4.90667 103.958 4.65333 104.129 4.424C104.299 4.18933 104.497 3.99733 104.721 3.848C104.939 3.688 105.182 3.56533 105.449 3.48C105.721 3.38933 105.998 3.336 106.281 3.32C106.563 3.29867 106.835 3.312 107.097 3.36V4.928C106.814 4.85333 106.499 4.832 106.153 4.864C105.811 4.896 105.497 5.00533 105.209 5.192C104.937 5.368 104.721 5.58133 104.561 5.832C104.406 6.08267 104.294 6.36267 104.225 6.672C104.155 6.976 104.121 7.29867 104.121 7.64V12H102.433ZM110.81 12.24C110.17 12.24 109.634 12.1227 109.202 11.888C108.77 11.648 108.442 11.3333 108.218 10.944C107.999 10.5493 107.89 10.1173 107.89 9.648C107.89 9.21067 107.967 8.82667 108.122 8.496C108.277 8.16533 108.506 7.88533 108.81 7.656C109.114 7.42133 109.487 7.232 109.93 7.088C110.314 6.976 110.749 6.87733 111.234 6.792C111.719 6.70667 112.229 6.62667 112.762 6.552C113.301 6.47733 113.834 6.40267 114.362 6.328L113.754 6.664C113.765 5.98667 113.621 5.48533 113.322 5.16C113.029 4.82933 112.522 4.664 111.802 4.664C111.349 4.664 110.933 4.77067 110.554 4.984C110.175 5.192 109.911 5.53867 109.762 6.024L108.202 5.544C108.415 4.80267 108.821 4.21333 109.418 3.776C110.021 3.33867 110.821 3.12 111.818 3.12C112.591 3.12 113.263 3.25333 113.834 3.52C114.41 3.78133 114.831 4.19733 115.098 4.768C115.237 5.05067 115.322 5.34933 115.354 5.664C115.386 5.97867 115.402 6.31733 115.402 6.68V12H113.922V10.024L114.21 10.28C113.853 10.9413 113.397 11.4347 112.842 11.76C112.293 12.08 111.615 12.24 110.81 12.24ZM111.106 10.872C111.581 10.872 111.989 10.7893 112.33 10.624C112.671 10.4533 112.946 10.2373 113.154 9.976C113.362 9.71467 113.498 9.44267 113.562 9.16C113.653 8.904 113.703 8.616 113.714 8.296C113.73 7.976 113.738 7.72 113.738 7.528L114.282 7.728C113.754 7.808 113.274 7.88 112.842 7.944C112.41 8.008 112.018 8.072 111.666 8.136C111.319 8.19467 111.01 8.26667 110.738 8.352C110.509 8.432 110.303 8.528 110.122 8.64C109.946 8.752 109.805 8.888 109.698 9.048C109.597 9.208 109.546 9.40267 109.546 9.632C109.546 9.856 109.602 10.064 109.714 10.256C109.826 10.4427 109.997 10.592 110.226 10.704C110.455 10.816 110.749 10.872 111.106 10.872ZM125.627 12C125.083 12.1067 124.549 12.152 124.027 12.136C123.504 12.12 123.037 12.0187 122.627 11.832C122.216 11.6453 121.907 11.352 121.699 10.952C121.512 10.5947 121.411 10.232 121.395 9.864C121.384 9.49067 121.379 9.06933 121.379 8.6V0.959999H123.059V8.52C123.059 8.86667 123.061 9.168 123.067 9.424C123.077 9.68 123.133 9.896 123.235 10.072C123.427 10.4027 123.731 10.592 124.147 10.64C124.568 10.6827 125.061 10.664 125.627 10.584V12ZM119.723 4.704V3.36H125.627V4.704H119.723ZM127.608 1.944V0.32H129.28V1.944H127.608ZM127.608 12V3.36H129.28V12H127.608Z" fill="#FCFCFD"/>
</svg>
