<svg width="89" height="33" viewBox="0 0 89 33" fill="none" xmlns="http://www.w3.org/2000/svg">
<rect x="0.5" y="0.5" width="88" height="32" rx="16" fill="white" stroke="#969EAB"/>
<rect width="49" height="33" rx="16.5" fill="#FF7800"/>
<path d="M20.8477 22.225C20.0477 22.225 19.3252 22.085 18.6802 21.805C18.0402 21.52 17.5127 21.115 17.0977 20.59C16.6877 20.06 16.4277 19.43 16.3177 18.7L18.4477 18.385C18.5977 19.005 18.9077 19.4825 19.3777 19.8175C19.8477 20.1525 20.3827 20.32 20.9827 20.32C21.3177 20.32 21.6427 20.2675 21.9577 20.1625C22.2727 20.0575 22.5302 19.9025 22.7302 19.6975C22.9352 19.4925 23.0377 19.24 23.0377 18.94C23.0377 18.83 23.0202 18.725 22.9852 18.625C22.9552 18.52 22.9027 18.4225 22.8277 18.3325C22.7527 18.2425 22.6452 18.1575 22.5052 18.0775C22.3702 17.9975 22.1977 17.925 21.9877 17.86L19.1827 17.035C18.9727 16.975 18.7277 16.89 18.4477 16.78C18.1727 16.67 17.9052 16.5125 17.6452 16.3075C17.3852 16.1025 17.1677 15.8325 16.9927 15.4975C16.8227 15.1575 16.7377 14.73 16.7377 14.215C16.7377 13.49 16.9202 12.8875 17.2852 12.4075C17.6502 11.9275 18.1377 11.57 18.7477 11.335C19.3577 11.1 20.0327 10.985 20.7727 10.99C21.5177 11 22.1827 11.1275 22.7677 11.3725C23.3527 11.6175 23.8427 11.975 24.2377 12.445C24.6327 12.91 24.9177 13.48 25.0927 14.155L22.8877 14.53C22.8077 14.18 22.6602 13.885 22.4452 13.645C22.2302 13.405 21.9727 13.2225 21.6727 13.0975C21.3777 12.9725 21.0677 12.905 20.7427 12.895C20.4227 12.885 20.1202 12.93 19.8352 13.03C19.5552 13.125 19.3252 13.265 19.1452 13.45C18.9702 13.635 18.8827 13.855 18.8827 14.11C18.8827 14.345 18.9552 14.5375 19.1002 14.6875C19.2452 14.8325 19.4277 14.95 19.6477 15.04C19.8677 15.13 20.0927 15.205 20.3227 15.265L22.1977 15.775C22.4777 15.85 22.7877 15.95 23.1277 16.075C23.4677 16.195 23.7927 16.365 24.1027 16.585C24.4177 16.8 24.6752 17.085 24.8752 17.44C25.0802 17.795 25.1827 18.245 25.1827 18.79C25.1827 19.37 25.0602 19.8775 24.8152 20.3125C24.5752 20.7425 24.2502 21.1 23.8402 21.385C23.4302 21.665 22.9652 21.875 22.4452 22.015C21.9302 22.155 21.3977 22.225 20.8477 22.225ZM29.5611 11.2H31.6011L28.7211 22H26.6811L29.5611 11.2Z" fill="white"/>
<path d="M68.0653 23.5V21.7H70.1053V23.5H68.0653ZM68.0653 11.515V9.715H70.1053V11.515H68.0653ZM69.1003 22.225C68.3253 22.225 67.6328 22.0825 67.0228 21.7975C66.4128 21.5075 65.9153 21.1 65.5303 20.575C65.1453 20.045 64.9003 19.42 64.7953 18.7L66.8203 18.385C66.9553 18.975 67.2378 19.445 67.6678 19.795C68.1028 20.145 68.6203 20.32 69.2203 20.32C69.7853 20.32 70.2528 20.1875 70.6228 19.9225C70.9978 19.6575 71.1853 19.33 71.1853 18.94C71.1853 18.675 71.1028 18.4575 70.9378 18.2875C70.7778 18.1125 70.5253 17.97 70.1803 17.86L67.5103 17.035C65.9703 16.56 65.2003 15.62 65.2003 14.215C65.2003 13.555 65.3553 12.9825 65.6653 12.4975C65.9803 12.0125 66.4228 11.64 66.9928 11.38C67.5678 11.115 68.2453 10.985 69.0253 10.99C69.7403 11 70.3753 11.13 70.9303 11.38C71.4853 11.625 71.9478 11.9825 72.3178 12.4525C72.6928 12.9175 72.9653 13.485 73.1353 14.155L71.0353 14.53C70.9653 14.21 70.8353 13.93 70.6453 13.69C70.4553 13.445 70.2178 13.255 69.9328 13.12C69.6528 12.98 69.3403 12.905 68.9953 12.895C68.6653 12.885 68.3653 12.9325 68.0953 13.0375C67.8303 13.1425 67.6178 13.29 67.4578 13.48C67.3028 13.665 67.2253 13.875 67.2253 14.11C67.2253 14.37 67.3353 14.595 67.5553 14.785C67.7753 14.97 68.1253 15.13 68.6053 15.265L70.5103 15.805C71.4653 16.08 72.1528 16.4525 72.5728 16.9225C72.9978 17.3925 73.2103 18.015 73.2103 18.79C73.2103 19.47 73.0378 20.0675 72.6928 20.5825C72.3478 21.0975 71.8653 21.5 71.2453 21.79C70.6303 22.08 69.9153 22.225 69.1003 22.225Z" fill="#969EAB"/>
</svg>
