<svg width="24" height="20" viewBox="0 0 24 20" fill="none" xmlns="http://www.w3.org/2000/svg">
<path d="M23.5735 2.53886C23.2625 2.17126 22.827 1.94673 22.3472 1.90666L5.44615 0.495442C4.96625 0.455364 4.49965 0.604566 4.13201 0.915487C3.76588 1.22519 3.54167 1.65845 3.50033 2.13597L3.1603 5.32608H1.80257C0.808637 5.32608 0 6.13472 0 7.12865V17.7084C0 18.7023 0.808637 19.511 1.80257 19.511H18.7625C19.7565 19.511 20.5651 18.7023 20.5651 17.7084V15.9922L21.1669 16.0424C21.2177 16.0466 21.2682 16.0487 21.3182 16.0487C22.2449 16.0487 23.0348 15.3358 23.1133 14.3961L23.9936 3.85304C24.0337 3.37318 23.8845 2.9065 23.5735 2.53886ZM1.80257 6.26358H18.7625C19.2395 6.26358 19.6276 6.65165 19.6276 7.12865V8.09268H0.937496V7.12865C0.937496 6.65165 1.32557 6.26358 1.80257 6.26358ZM0.937496 9.03017H19.6276V10.975H0.937496V9.03017ZM18.7625 18.5735H1.80257C1.32557 18.5735 0.937496 18.1854 0.937496 17.7084V11.9125H19.6276V17.7084C19.6276 18.1854 19.2395 18.5735 18.7625 18.5735ZM23.0594 3.77499L22.179 14.318C22.1393 14.7934 21.7202 15.148 21.2449 15.1082L20.5651 15.0514V7.12865C20.5651 6.13472 19.7565 5.32608 18.7625 5.32608H4.10314L4.43309 2.23047C4.43347 2.2269 4.43379 2.22339 4.43408 2.21978C4.47378 1.74442 4.89265 1.38986 5.36815 1.4297L22.2692 2.84092C22.4995 2.86014 22.7086 2.9679 22.8578 3.14434C23.007 3.32077 23.0786 3.5447 23.0594 3.77499Z" fill="#FCFCFD"/>
<path d="M17.6659 13.3061H13.1545C12.8957 13.3061 12.6858 13.516 12.6858 13.7749V16.7181C12.6858 16.977 12.8957 17.1869 13.1545 17.1869H17.6659C17.9248 17.1869 18.1346 16.977 18.1346 16.7181V13.7749C18.1346 13.516 17.9248 13.3061 17.6659 13.3061ZM17.1971 16.2494H13.6233V14.2436H17.1971V16.2494Z" fill="#FCFCFD"/>
</svg>
