<svg width="24" height="24" viewBox="0 0 24 24" fill="none" xmlns="http://www.w3.org/2000/svg">
<g clip-path="url(#clip0_82_657)">
<path d="M21.8324 1.03614C21.7498 0.985179 21.6546 0.958053 21.5576 0.958053H5.89179C4.54497 0.958053 3.44926 2.04307 3.44926 3.37284L3.3572 16.8635H0.526071C0.235499 16.8635 0 17.099 0 17.3896V19.82C0.00184947 21.6047 1.44813 23.051 3.23287 23.053C3.26904 23.053 3.30541 23.0493 3.34096 23.0419H16.4116C16.4895 23.0475 16.568 23.0512 16.6471 23.0512C18.4596 23.0479 19.9272 21.5782 19.9278 19.7657V11.8796H23.4739C23.7644 11.8796 23.9999 11.6441 23.9999 11.3535V3.54423C23.9936 2.28844 23.074 1.22417 21.8324 1.03614ZM1.05214 19.8202V17.9158H13.3663V19.7659C13.3657 20.5902 13.6758 21.3842 14.235 21.9898H3.16095C3.13608 21.99 3.11142 21.9919 3.08697 21.9956C1.94256 21.9177 1.05358 20.9673 1.05214 19.8202ZM18.8757 3.54423V19.7657C18.8747 20.3538 18.641 20.9173 18.2257 21.3334C17.8281 21.7414 17.2878 21.9795 16.7186 21.9976C16.6902 21.9927 16.6615 21.9902 16.6325 21.99H16.4475C15.3017 21.8772 14.4261 20.9175 14.4185 19.7661V17.3896C14.4185 17.0992 14.183 16.8635 13.8924 16.8635H4.40934L4.5014 3.37654C4.50901 2.61579 5.13084 2.00444 5.89179 2.0102H19.3983C19.0594 2.44975 18.8755 2.98918 18.8757 3.54423ZM22.9478 10.8274H19.9278V3.54423C19.9416 2.71998 20.6136 2.05931 21.4378 2.05931C22.2621 2.05931 22.934 2.71998 22.9478 3.54423V10.8274Z" fill="#FCFCFD"/>
<path d="M6.75404 6.65729H11.7365C12.0271 6.65729 12.2626 6.4218 12.2626 6.13122C12.2626 5.84065 12.0271 5.60515 11.7365 5.60515H6.75404C6.46347 5.60515 6.22797 5.84065 6.22797 6.13122C6.22797 6.4218 6.46347 6.65729 6.75404 6.65729Z" fill="#FCFCFD"/>
<path d="M16.0482 9.36656H6.75404C6.46347 9.36656 6.22797 9.60206 6.22797 9.89263C6.22797 10.183 6.46347 10.4187 6.75404 10.4187H16.0482C16.3388 10.4187 16.5743 10.183 16.5743 9.89263C16.5743 9.60206 16.3388 9.36656 16.0482 9.36656Z" fill="#FCFCFD"/>
<path d="M16.0482 13.1278H6.75404C6.46347 13.1278 6.22797 13.3635 6.22797 13.6538C6.22797 13.9444 6.46347 14.1799 6.75404 14.1799H16.0482C16.3388 14.1799 16.5743 13.9444 16.5743 13.6538C16.5743 13.3635 16.3388 13.1278 16.0482 13.1278Z" fill="#FCFCFD"/>
</g>
<defs>
<clipPath id="clip0_82_657">
<rect width="24" height="24" fill="white"/>
</clipPath>
</defs>
</svg>
